# xmcd
#
# Track frame offsets:
#	150
#	24413
#	47758
#	76548
#	105025
#	127050
#	148206
#	171764
#	194603
#	218155
#
# Disc length: 3207 seconds
#
# Revision: 1
# Processed by: cddbd v1.5.1PL0 Copyright (c) Steve Scherf et al.
# Submitted via: EasyCDDAExtractor 5.1.0
#
DISCID=820c850a
DTITLE=Manh Quynh and Ha Vy - YeuDau Ha Tien
DYEAR=1900
DGENRE=Blues
TTITLE0=Thuyen Hoa
TTITLE1=Yeu Dau Ha Tien
TTITLE2=Ben Cau Ngo Mong
TTITLE3=Ve Lai Doi Sim
TTITLE4=Tinh Tham Duyen Que
TTITLE5=Ly Chieu Chieu
TTITLE6=Duwong Ve Hai thon
TTITLE7=Ru Con Thuyen Mong
TTITLE8=Goi Nho Que Huong
TTITLE9=Que Huong
EXTD=
EXTT0=
EXTT1=
EXTT2=
EXTT3=
EXTT4=
EXTT5=
EXTT6=
EXTT7=
EXTT8=
EXTT9=
PLAYORDER=
